<svg width="32" height="32" viewBox="0 0 32 32" fill="none" xmlns="http://www.w3.org/2000/svg">
<rect width="32" height="32" fill="#FF4794"/>
<path d="M11.3741 19.472C11.3741 18.888 11.2581 18.428 11.0261 18.092C10.8021 17.748 10.4821 17.504 10.0661 17.36C9.65807 17.216 9.17807 17.144 8.62607 17.144H7.00607V21.632H8.45807C8.84207 21.632 9.20607 21.604 9.55007 21.548C9.90207 21.492 10.2141 21.388 10.4861 21.236C10.7661 21.084 10.9821 20.868 11.1341 20.588C11.2941 20.3 11.3741 19.928 11.3741 19.472ZM10.7501 12.512C10.7501 11.856 10.5421 11.384 10.1261 11.096C9.71807 10.8 9.08207 10.652 8.21807 10.652H7.00607V14.504H8.33807C9.18607 14.504 9.79807 14.348 10.1741 14.036C10.5581 13.724 10.7501 13.216 10.7501 12.512ZM15.4301 19.628C15.4301 20.588 15.2461 21.384 14.8781 22.016C14.5101 22.648 14.0061 23.144 13.3661 23.504C12.7261 23.864 11.9941 24.12 11.1701 24.272C10.3541 24.424 9.49407 24.5 8.59007 24.5H3.07007V7.868H8.33807C9.19407 7.868 10.0021 7.94 10.7621 8.084C11.5301 8.22 12.2101 8.452 12.8021 8.78C13.3941 9.1 13.8581 9.536 14.1941 10.088C14.5381 10.632 14.7101 11.308 14.7101 12.116C14.7101 12.78 14.5701 13.356 14.2901 13.844C14.0101 14.324 13.6381 14.72 13.1741 15.032C12.7101 15.336 12.2061 15.556 11.6621 15.692C12.2541 15.788 12.8381 15.976 13.4141 16.256C13.9981 16.528 14.4781 16.936 14.8541 17.48C15.2381 18.024 15.4301 18.74 15.4301 19.628ZM24.7567 20.912H19.8847L19.0087 24.5H14.8927L19.9807 7.868H24.7567L29.8447 24.5H25.6327L24.7567 20.912ZM20.5087 18.056H24.1087L22.3087 10.7L20.5087 18.056Z" fill="white"/>
</svg>
